<svg xmlns="http://www.w3.org/2000/svg" xmlns:xlink="http://www.w3.org/1999/xlink" width="800" zoomAndPan="magnify" viewBox="0 0 600 449.999984" height="600" preserveAspectRatio="xMidYMid meet" version="1.0"><defs><g/></defs><g fill="#000000" fill-opacity="1"><g transform="translate(0.0000108667, 187.979257)"><g><path d="M 175.15625 -100.390625 L 175.15625 -61.5 C 170.519531 -40.195312 160.378906 -24.078125 144.734375 -13.140625 C 129.085938 -2.203125 111.628906 3.265625 92.359375 3.265625 C 68.160156 3.265625 47.550781 -5.785156 30.53125 -23.890625 C 13.507812 -42.003906 5 -63.882812 5 -89.53125 C 5 -115.613281 13.328125 -137.632812 29.984375 -155.59375 C 46.648438 -173.5625 67.441406 -182.546875 92.359375 -182.546875 C 121.472656 -182.546875 144.507812 -172.332031 161.46875 -151.90625 L 134.734375 -122.5625 C 125.171875 -137.914062 111.84375 -145.59375 94.75 -145.59375 C 82.144531 -145.59375 71.382812 -140.125 62.46875 -129.1875 C 53.5625 -118.25 49.109375 -105.03125 49.109375 -89.53125 C 49.109375 -74.320312 53.5625 -61.316406 62.46875 -50.515625 C 71.382812 -39.722656 82.144531 -34.328125 94.75 -34.328125 C 105.175781 -34.328125 114.265625 -37.476562 122.015625 -43.78125 C 129.765625 -50.082031 133.640625 -58.453125 133.640625 -68.890625 L 92.359375 -68.890625 L 92.359375 -100.390625 Z M 175.15625 -100.390625 "/></g></g></g><g fill="#000000" fill-opacity="1"><g transform="translate(180.131262, 139.295605)"><g><path d="M 7.453125 -102.546875 L 44.125 -102.546875 C 53.988281 -102.546875 62.023438 -99.914062 68.234375 -94.65625 C 74.453125 -89.394531 77.5625 -81.875 77.5625 -72.09375 C 77.5625 -64.550781 75.675781 -58.234375 71.90625 -53.140625 C 68.132812 -48.046875 63.019531 -44.460938 56.5625 -42.390625 L 91.859375 0 L 62.15625 0 L 30.828125 -40.515625 L 30.828125 0 L 7.453125 0 Z M 30.828125 -57.046875 L 33.5625 -57.046875 C 35.71875 -57.046875 37.539062 -57.085938 39.03125 -57.171875 C 40.519531 -57.253906 42.21875 -57.546875 44.125 -58.046875 C 46.03125 -58.546875 47.5625 -59.25 48.71875 -60.15625 C 49.882812 -61.070312 50.878906 -62.398438 51.703125 -64.140625 C 52.535156 -65.878906 52.953125 -67.988281 52.953125 -70.46875 C 52.953125 -72.957031 52.535156 -75.070312 51.703125 -76.8125 C 50.878906 -78.550781 49.882812 -79.875 48.71875 -80.78125 C 47.5625 -81.695312 46.03125 -82.40625 44.125 -82.90625 C 42.21875 -83.40625 40.519531 -83.695312 39.03125 -83.78125 C 37.539062 -83.863281 35.71875 -83.90625 33.5625 -83.90625 L 30.828125 -83.90625 Z M 30.828125 -57.046875 "/></g></g></g><g fill="#000000" fill-opacity="1"><g transform="translate(269.120578, 139.295605)"><g><path d="M 66.125 -102.546875 L 66.125 -82.03125 L 30.828125 -82.03125 L 30.828125 -61.65625 L 64.640625 -61.65625 L 64.640625 -41.140625 L 30.828125 -41.140625 L 30.828125 -20.515625 L 66.125 -20.515625 L 66.125 0 L 7.453125 0 L 7.453125 -102.546875 Z M 66.125 -102.546875 "/></g></g></g><g fill="#000000" fill-opacity="1"><g transform="translate(341.206894, 139.295605)"><g><path d="M 45.25 -104.40625 C 50.800781 -104.40625 56.226562 -103.597656 61.53125 -101.984375 C 66.832031 -100.367188 70.765625 -98.773438 73.328125 -97.203125 L 77.0625 -94.71875 L 67.625 -76.0625 C 66.875 -76.5625 65.832031 -77.203125 64.5 -77.984375 C 63.175781 -78.773438 60.691406 -79.832031 57.046875 -81.15625 C 53.398438 -82.488281 50.003906 -83.15625 46.859375 -83.15625 C 42.960938 -83.15625 39.957031 -82.328125 37.84375 -80.671875 C 35.726562 -79.015625 34.671875 -76.773438 34.671875 -73.953125 C 34.671875 -72.546875 35.164062 -71.238281 36.15625 -70.03125 C 37.15625 -68.832031 38.859375 -67.550781 41.265625 -66.1875 C 43.671875 -64.820312 45.785156 -63.722656 47.609375 -62.890625 C 49.429688 -62.066406 52.25 -60.828125 56.0625 -59.171875 C 62.6875 -56.347656 68.335938 -52.507812 73.015625 -47.65625 C 77.703125 -42.8125 80.046875 -37.328125 80.046875 -31.203125 C 80.046875 -25.316406 78.988281 -20.175781 76.875 -15.78125 C 74.757812 -11.394531 71.859375 -7.957031 68.171875 -5.46875 C 64.484375 -2.976562 60.398438 -1.132812 55.921875 0.0625 C 51.453125 1.257812 46.609375 1.859375 41.390625 1.859375 C 36.910156 1.859375 32.515625 1.398438 28.203125 0.484375 C 23.898438 -0.421875 20.296875 -1.554688 17.390625 -2.921875 C 14.492188 -4.285156 11.882812 -5.628906 9.5625 -6.953125 C 7.25 -8.285156 5.550781 -9.40625 4.46875 -10.3125 L 2.859375 -11.6875 L 14.546875 -31.328125 C 15.535156 -30.492188 16.898438 -29.4375 18.640625 -28.15625 C 20.378906 -26.875 23.460938 -25.15625 27.890625 -23 C 32.328125 -20.84375 36.25 -19.765625 39.65625 -19.765625 C 49.507812 -19.765625 54.4375 -23.117188 54.4375 -29.828125 C 54.4375 -31.234375 54.082031 -32.535156 53.375 -33.734375 C 52.675781 -34.941406 51.4375 -36.144531 49.65625 -37.34375 C 47.875 -38.550781 46.296875 -39.503906 44.921875 -40.203125 C 43.554688 -40.910156 41.320312 -41.988281 38.21875 -43.4375 C 35.113281 -44.882812 32.816406 -45.984375 31.328125 -46.734375 C 25.109375 -49.796875 20.300781 -53.625 16.90625 -58.21875 C 13.507812 -62.820312 11.8125 -67.78125 11.8125 -73.09375 C 11.8125 -82.289062 15.207031 -89.804688 22 -95.640625 C 28.789062 -101.484375 36.539062 -104.40625 45.25 -104.40625 Z M 45.25 -104.40625 "/></g></g></g><g fill="#000000" fill-opacity="1"><g transform="translate(424.7276, 139.295605)"><g><path d="M 100.8125 0 L 68.609375 0 L 30.828125 -43.5 L 30.828125 0 L 7.453125 0 L 7.453125 -102.546875 L 30.828125 -102.546875 L 30.828125 -60.65625 L 66 -102.546875 L 94.34375 -102.546875 L 53.078125 -53.9375 Z M 100.8125 0 "/></g></g></g><g fill="#000000" fill-opacity="1"><g transform="translate(522.541287, 139.295605)"><g><path d="M 66.125 -102.546875 L 66.125 -82.03125 L 30.828125 -82.03125 L 30.828125 -61.65625 L 64.640625 -61.65625 L 64.640625 -41.140625 L 30.828125 -41.140625 L 30.828125 -20.515625 L 66.125 -20.515625 L 66.125 0 L 7.453125 0 L 7.453125 -102.546875 Z M 66.125 -102.546875 "/></g></g></g><g fill="#000000" fill-opacity="1"><g transform="translate(273.190062, 202.049801)"><g><path d="M 31.375 -23.75 L 32.875 -32.921875 C 32.875 -33.253906 32.789062 -33.460938 32.625 -33.546875 C 32.457031 -33.628906 32.238281 -33.671875 31.96875 -33.671875 L 7.5625 -33.671875 C 6.863281 -33.671875 6.429688 -33.390625 6.265625 -32.828125 L 3.15625 -24.109375 L 4.203125 -24.109375 C 4.941406 -25.835938 5.675781 -27.257812 6.40625 -28.375 C 7.144531 -29.5 7.898438 -30.394531 8.671875 -31.0625 C 9.441406 -31.726562 10.226562 -32.195312 11.03125 -32.46875 C 11.832031 -32.738281 12.628906 -32.875 13.421875 -32.875 L 17.140625 -32.875 L 8.265625 -0.796875 L 3.90625 -0.796875 L 3.703125 0 L 17.1875 0 L 17.4375 -0.796875 L 13.078125 -0.796875 L 22 -32.875 L 25.5625 -32.875 C 26.320312 -32.875 27.007812 -32.769531 27.625 -32.5625 C 28.25 -32.363281 28.769531 -32.019531 29.1875 -31.53125 C 29.601562 -31.050781 29.921875 -30.410156 30.140625 -29.609375 C 30.359375 -28.804688 30.46875 -27.789062 30.46875 -26.5625 C 30.46875 -25.726562 30.414062 -24.789062 30.3125 -23.75 Z M 31.375 -23.75 "/></g></g></g><g fill="#000000" fill-opacity="1"><g transform="translate(303.25476, 202.049801)"><g><path d="M 9.515625 -16.890625 L 10.265625 -19.640625 L 3.109375 -19.640625 L 2.90625 -18.796875 L 5.71875 -18.796875 L 0.546875 0 L 4.8125 0 L 8.625 -13.578125 C 8.75 -14.109375 9.046875 -14.707031 9.515625 -15.375 C 9.984375 -16.050781 10.523438 -16.679688 11.140625 -17.265625 C 11.765625 -17.847656 12.4375 -18.335938 13.15625 -18.734375 C 13.875 -19.140625 14.566406 -19.34375 15.234375 -19.34375 L 15.578125 -19.34375 C 15.285156 -19.175781 14.96875 -18.863281 14.625 -18.40625 C 14.289062 -17.957031 14.125 -17.4375 14.125 -16.84375 C 14.125 -16.039062 14.390625 -15.378906 14.921875 -14.859375 C 15.460938 -14.335938 16.164062 -14.078125 17.03125 -14.078125 C 17.632812 -14.078125 18.242188 -14.285156 18.859375 -14.703125 C 19.484375 -15.117188 19.796875 -15.847656 19.796875 -16.890625 C 19.796875 -17.523438 19.675781 -18.050781 19.4375 -18.46875 C 19.207031 -18.882812 18.90625 -19.21875 18.53125 -19.46875 C 18.164062 -19.71875 17.738281 -19.898438 17.25 -20.015625 C 16.769531 -20.128906 16.28125 -20.1875 15.78125 -20.1875 C 14.945312 -20.1875 14.210938 -20.085938 13.578125 -19.890625 C 12.941406 -19.691406 12.375 -19.429688 11.875 -19.109375 C 11.375 -18.796875 10.9375 -18.4375 10.5625 -18.03125 C 10.195312 -17.632812 9.847656 -17.253906 9.515625 -16.890625 Z M 9.515625 -16.890625 "/></g></g></g><g fill="#000000" fill-opacity="1"><g transform="translate(323.949294, 202.049801)"><g><path d="M 10.671875 -10.328125 C 9.898438 -10.328125 9.296875 -10.375 8.859375 -10.46875 C 8.429688 -10.570312 8.050781 -10.675781 7.71875 -10.78125 C 7.945312 -11.539062 8.160156 -12.226562 8.359375 -12.84375 C 8.566406 -13.46875 8.769531 -14.046875 8.96875 -14.578125 C 9.375 -15.617188 9.785156 -16.445312 10.203125 -17.0625 C 10.617188 -17.675781 11.050781 -18.160156 11.5 -18.515625 C 11.945312 -18.867188 12.410156 -19.101562 12.890625 -19.21875 C 13.378906 -19.332031 13.894531 -19.390625 14.4375 -19.390625 C 15.46875 -19.390625 16.191406 -19.097656 16.609375 -18.515625 C 17.023438 -17.929688 17.234375 -17.171875 17.234375 -16.234375 C 17.234375 -15.429688 17.066406 -14.675781 16.734375 -13.96875 C 16.398438 -13.269531 15.941406 -12.644531 15.359375 -12.09375 C 14.773438 -11.550781 14.082031 -11.117188 13.28125 -10.796875 C 12.476562 -10.484375 11.609375 -10.328125 10.671875 -10.328125 Z M 7.46875 -9.96875 C 7.9375 -9.800781 8.425781 -9.648438 8.9375 -9.515625 C 9.457031 -9.390625 10.238281 -9.328125 11.28125 -9.328125 C 12.25 -9.328125 13.300781 -9.429688 14.4375 -9.640625 C 15.570312 -9.859375 16.625 -10.21875 17.59375 -10.71875 C 18.5625 -11.21875 19.367188 -11.867188 20.015625 -12.671875 C 20.671875 -13.472656 21 -14.460938 21 -15.640625 C 21 -17.035156 20.429688 -18.140625 19.296875 -18.953125 C 18.160156 -19.773438 16.671875 -20.1875 14.828125 -20.1875 C 12.960938 -20.1875 11.226562 -19.859375 9.625 -19.203125 C 8.019531 -18.554688 6.625 -17.664062 5.4375 -16.53125 C 4.25 -15.394531 3.320312 -14.082031 2.65625 -12.59375 C 1.988281 -11.113281 1.65625 -9.535156 1.65625 -7.859375 C 1.65625 -6.628906 1.867188 -5.492188 2.296875 -4.453125 C 2.734375 -3.421875 3.328125 -2.535156 4.078125 -1.796875 C 4.835938 -1.066406 5.734375 -0.492188 6.765625 -0.078125 C 7.796875 0.335938 8.898438 0.546875 10.078125 0.546875 C 11.378906 0.546875 12.546875 0.367188 13.578125 0.015625 C 14.617188 -0.328125 15.519531 -0.78125 16.28125 -1.34375 C 17.050781 -1.914062 17.691406 -2.546875 18.203125 -3.234375 C 18.722656 -3.921875 19.132812 -4.597656 19.4375 -5.265625 C 19.476562 -5.328125 19.5 -5.425781 19.5 -5.5625 C 19.5 -5.832031 19.363281 -5.96875 19.09375 -5.96875 C 18.851562 -5.96875 18.6875 -5.832031 18.59375 -5.5625 C 18.320312 -4.925781 17.9375 -4.289062 17.4375 -3.65625 C 16.9375 -3.019531 16.332031 -2.453125 15.625 -1.953125 C 14.925781 -1.453125 14.125 -1.039062 13.21875 -0.71875 C 12.320312 -0.40625 11.359375 -0.25 10.328125 -0.25 C 9.054688 -0.25 8.066406 -0.625 7.359375 -1.375 C 6.660156 -2.125 6.3125 -3.050781 6.3125 -4.15625 C 6.3125 -4.519531 6.328125 -4.910156 6.359375 -5.328125 C 6.390625 -5.753906 6.492188 -6.25 6.671875 -6.8125 Z M 7.46875 -9.96875 "/></g></g></g><g fill="#000000" fill-opacity="1"><g transform="translate(346.096955, 202.049801)"><g><path d="M 10.671875 -10.328125 C 9.898438 -10.328125 9.296875 -10.375 8.859375 -10.46875 C 8.429688 -10.570312 8.050781 -10.675781 7.71875 -10.78125 C 7.945312 -11.539062 8.160156 -12.226562 8.359375 -12.84375 C 8.566406 -13.46875 8.769531 -14.046875 8.96875 -14.578125 C 9.375 -15.617188 9.785156 -16.445312 10.203125 -17.0625 C 10.617188 -17.675781 11.050781 -18.160156 11.5 -18.515625 C 11.945312 -18.867188 12.410156 -19.101562 12.890625 -19.21875 C 13.378906 -19.332031 13.894531 -19.390625 14.4375 -19.390625 C 15.46875 -19.390625 16.191406 -19.097656 16.609375 -18.515625 C 17.023438 -17.929688 17.234375 -17.171875 17.234375 -16.234375 C 17.234375 -15.429688 17.066406 -14.675781 16.734375 -13.96875 C 16.398438 -13.269531 15.941406 -12.644531 15.359375 -12.09375 C 14.773438 -11.550781 14.082031 -11.117188 13.28125 -10.796875 C 12.476562 -10.484375 11.609375 -10.328125 10.671875 -10.328125 Z M 7.46875 -9.96875 C 7.9375 -9.800781 8.425781 -9.648438 8.9375 -9.515625 C 9.457031 -9.390625 10.238281 -9.328125 11.28125 -9.328125 C 12.25 -9.328125 13.300781 -9.429688 14.4375 -9.640625 C 15.570312 -9.859375 16.625 -10.21875 17.59375 -10.71875 C 18.5625 -11.21875 19.367188 -11.867188 20.015625 -12.671875 C 20.671875 -13.472656 21 -14.460938 21 -15.640625 C 21 -17.035156 20.429688 -18.140625 19.296875 -18.953125 C 18.160156 -19.773438 16.671875 -20.1875 14.828125 -20.1875 C 12.960938 -20.1875 11.226562 -19.859375 9.625 -19.203125 C 8.019531 -18.554688 6.625 -17.664062 5.4375 -16.53125 C 4.25 -15.394531 3.320312 -14.082031 2.65625 -12.59375 C 1.988281 -11.113281 1.65625 -9.535156 1.65625 -7.859375 C 1.65625 -6.628906 1.867188 -5.492188 2.296875 -4.453125 C 2.734375 -3.421875 3.328125 -2.535156 4.078125 -1.796875 C 4.835938 -1.066406 5.734375 -0.492188 6.765625 -0.078125 C 7.796875 0.335938 8.898438 0.546875 10.078125 0.546875 C 11.378906 0.546875 12.546875 0.367188 13.578125 0.015625 C 14.617188 -0.328125 15.519531 -0.78125 16.28125 -1.34375 C 17.050781 -1.914062 17.691406 -2.546875 18.203125 -3.234375 C 18.722656 -3.921875 19.132812 -4.597656 19.4375 -5.265625 C 19.476562 -5.328125 19.5 -5.425781 19.5 -5.5625 C 19.5 -5.832031 19.363281 -5.96875 19.09375 -5.96875 C 18.851562 -5.96875 18.6875 -5.832031 18.59375 -5.5625 C 18.320312 -4.925781 17.9375 -4.289062 17.4375 -3.65625 C 16.9375 -3.019531 16.332031 -2.453125 15.625 -1.953125 C 14.925781 -1.453125 14.125 -1.039062 13.21875 -0.71875 C 12.320312 -0.40625 11.359375 -0.25 10.328125 -0.25 C 9.054688 -0.25 8.066406 -0.625 7.359375 -1.375 C 6.660156 -2.125 6.3125 -3.050781 6.3125 -4.15625 C 6.3125 -4.519531 6.328125 -4.910156 6.359375 -5.328125 C 6.390625 -5.753906 6.492188 -6.25 6.671875 -6.8125 Z M 7.46875 -9.96875 "/></g></g></g><g fill="#000000" fill-opacity="1"><g transform="translate(368.244616, 202.049801)"><g/></g></g><g fill="#000000" fill-opacity="1"><g transform="translate(381.673515, 202.049801)"><g><path d="M 31.375 -23.75 L 32.875 -32.921875 C 32.875 -33.253906 32.789062 -33.460938 32.625 -33.546875 C 32.457031 -33.628906 32.238281 -33.671875 31.96875 -33.671875 L 7.5625 -33.671875 C 6.863281 -33.671875 6.429688 -33.390625 6.265625 -32.828125 L 3.15625 -24.109375 L 4.203125 -24.109375 C 4.941406 -25.835938 5.675781 -27.257812 6.40625 -28.375 C 7.144531 -29.5 7.898438 -30.394531 8.671875 -31.0625 C 9.441406 -31.726562 10.226562 -32.195312 11.03125 -32.46875 C 11.832031 -32.738281 12.628906 -32.875 13.421875 -32.875 L 17.140625 -32.875 L 8.265625 -0.796875 L 3.90625 -0.796875 L 3.703125 0 L 17.1875 0 L 17.4375 -0.796875 L 13.078125 -0.796875 L 22 -32.875 L 25.5625 -32.875 C 26.320312 -32.875 27.007812 -32.769531 27.625 -32.5625 C 28.25 -32.363281 28.769531 -32.019531 29.1875 -31.53125 C 29.601562 -31.050781 29.921875 -30.410156 30.140625 -29.609375 C 30.359375 -28.804688 30.46875 -27.789062 30.46875 -26.5625 C 30.46875 -25.726562 30.414062 -24.789062 30.3125 -23.75 Z M 31.375 -23.75 "/></g></g></g><g fill="#000000" fill-opacity="1"><g transform="translate(411.738213, 202.049801)"><g><path d="M 9.515625 -16.890625 L 10.265625 -19.640625 L 3.109375 -19.640625 L 2.90625 -18.796875 L 5.71875 -18.796875 L 0.546875 0 L 4.8125 0 L 8.625 -13.578125 C 8.75 -14.109375 9.046875 -14.707031 9.515625 -15.375 C 9.984375 -16.050781 10.523438 -16.679688 11.140625 -17.265625 C 11.765625 -17.847656 12.4375 -18.335938 13.15625 -18.734375 C 13.875 -19.140625 14.566406 -19.34375 15.234375 -19.34375 L 15.578125 -19.34375 C 15.285156 -19.175781 14.96875 -18.863281 14.625 -18.40625 C 14.289062 -17.957031 14.125 -17.4375 14.125 -16.84375 C 14.125 -16.039062 14.390625 -15.378906 14.921875 -14.859375 C 15.460938 -14.335938 16.164062 -14.078125 17.03125 -14.078125 C 17.632812 -14.078125 18.242188 -14.285156 18.859375 -14.703125 C 19.484375 -15.117188 19.796875 -15.847656 19.796875 -16.890625 C 19.796875 -17.523438 19.675781 -18.050781 19.4375 -18.46875 C 19.207031 -18.882812 18.90625 -19.21875 18.53125 -19.46875 C 18.164062 -19.71875 17.738281 -19.898438 17.25 -20.015625 C 16.769531 -20.128906 16.28125 -20.1875 15.78125 -20.1875 C 14.945312 -20.1875 14.210938 -20.085938 13.578125 -19.890625 C 12.941406 -19.691406 12.375 -19.429688 11.875 -19.109375 C 11.375 -18.796875 10.9375 -18.4375 10.5625 -18.03125 C 10.195312 -17.632812 9.847656 -17.253906 9.515625 -16.890625 Z M 9.515625 -16.890625 "/></g></g></g><g fill="#000000" fill-opacity="1"><g transform="translate(432.432747, 202.049801)"><g><path d="M 13.734375 -29.109375 C 13.734375 -29.742188 13.53125 -30.300781 13.125 -30.78125 C 12.726562 -31.269531 12.113281 -31.515625 11.28125 -31.515625 C 10.34375 -31.515625 9.640625 -31.222656 9.171875 -30.640625 C 8.703125 -30.054688 8.46875 -29.429688 8.46875 -28.765625 C 8.46875 -28.128906 8.664062 -27.566406 9.0625 -27.078125 C 9.46875 -26.597656 10.085938 -26.359375 10.921875 -26.359375 C 11.859375 -26.359375 12.5625 -26.648438 13.03125 -27.234375 C 13.5 -27.816406 13.734375 -28.441406 13.734375 -29.109375 Z M 2.75 -18.84375 L 6.515625 -18.84375 L 2.859375 -5.609375 C 2.660156 -4.878906 2.519531 -4.238281 2.4375 -3.6875 C 2.351562 -3.132812 2.3125 -2.640625 2.3125 -2.203125 C 2.3125 -1.597656 2.394531 -1.113281 2.5625 -0.75 C 2.726562 -0.382812 2.9375 -0.113281 3.1875 0.0625 C 3.4375 0.25 3.726562 0.375 4.0625 0.4375 C 4.394531 0.507812 4.726562 0.546875 5.0625 0.546875 C 5.863281 0.546875 6.570312 0.378906 7.1875 0.046875 C 7.8125 -0.285156 8.394531 -0.75 8.9375 -1.34375 C 9.488281 -1.945312 10.023438 -2.675781 10.546875 -3.53125 C 11.066406 -4.382812 11.609375 -5.328125 12.171875 -6.359375 C 12.242188 -6.566406 12.28125 -6.671875 12.28125 -6.671875 C 12.28125 -6.867188 12.195312 -6.96875 12.03125 -6.96875 C 11.863281 -6.96875 11.726562 -6.882812 11.625 -6.71875 C 9.6875 -3.375 8.234375 -1.703125 7.265625 -1.703125 C 6.796875 -1.703125 6.5625 -2.050781 6.5625 -2.75 C 6.5625 -3.21875 6.660156 -3.804688 6.859375 -4.515625 L 11.078125 -19.640625 L 2.953125 -19.640625 Z M 2.75 -18.84375 "/></g></g></g><g fill="#000000" fill-opacity="1"><g transform="translate(446.412831, 202.049801)"><g><path d="M 29.265625 -16.1875 C 29.265625 -15.78125 29.222656 -15.34375 29.140625 -14.875 C 29.054688 -14.414062 28.929688 -13.898438 28.765625 -13.328125 L 26.515625 -5.40625 C 26.335938 -4.84375 26.21875 -4.359375 26.15625 -3.953125 C 26.09375 -3.554688 26.0625 -3.125 26.0625 -2.65625 C 26.0625 -2.019531 26.164062 -1.492188 26.375 -1.078125 C 26.59375 -0.660156 26.878906 -0.328125 27.234375 -0.078125 C 27.585938 0.171875 27.992188 0.34375 28.453125 0.4375 C 28.921875 0.539062 29.425781 0.59375 29.96875 0.59375 C 30.863281 0.59375 31.660156 0.382812 32.359375 -0.03125 C 33.066406 -0.445312 33.695312 -0.988281 34.25 -1.65625 C 34.800781 -2.320312 35.316406 -3.0625 35.796875 -3.875 C 36.285156 -4.695312 36.765625 -5.523438 37.234375 -6.359375 C 37.296875 -6.492188 37.328125 -6.597656 37.328125 -6.671875 C 37.328125 -6.929688 37.210938 -7.0625 36.984375 -7.0625 C 36.847656 -7.0625 36.726562 -6.976562 36.625 -6.8125 C 35.625 -5.039062 34.671875 -3.585938 33.765625 -2.453125 C 32.867188 -1.316406 32.035156 -0.75 31.265625 -0.75 C 30.566406 -0.75 30.21875 -1.203125 30.21875 -2.109375 C 30.21875 -2.335938 30.234375 -2.59375 30.265625 -2.875 C 30.296875 -3.164062 30.378906 -3.546875 30.515625 -4.015625 L 33.125 -13.484375 C 33.320312 -14.117188 33.421875 -14.800781 33.421875 -15.53125 C 33.421875 -16.132812 33.335938 -16.71875 33.171875 -17.28125 C 33.003906 -17.851562 32.742188 -18.347656 32.390625 -18.765625 C 32.046875 -19.179688 31.578125 -19.519531 30.984375 -19.78125 C 30.398438 -20.050781 29.691406 -20.1875 28.859375 -20.1875 C 27.921875 -20.1875 27.078125 -20.070312 26.328125 -19.84375 C 25.578125 -19.613281 24.898438 -19.3125 24.296875 -18.9375 C 23.703125 -18.570312 23.160156 -18.15625 22.671875 -17.6875 C 22.191406 -17.21875 21.765625 -16.75 21.390625 -16.28125 C 21.390625 -17.65625 21.003906 -18.648438 20.234375 -19.265625 C 19.472656 -19.878906 18.359375 -20.1875 16.890625 -20.1875 C 15.890625 -20.1875 14.992188 -20.070312 14.203125 -19.84375 C 13.421875 -19.613281 12.726562 -19.3125 12.125 -18.9375 C 11.519531 -18.570312 10.984375 -18.144531 10.515625 -17.65625 C 10.054688 -17.175781 9.640625 -16.6875 9.265625 -16.1875 L 10.21875 -19.640625 L 2.703125 -19.640625 L 2.453125 -18.84375 L 5.71875 -18.84375 L 0.5 0 L 4.765625 0 L 8.265625 -12.78125 C 8.460938 -13.34375 8.800781 -13.984375 9.28125 -14.703125 C 9.769531 -15.421875 10.320312 -16.097656 10.9375 -16.734375 C 11.5625 -17.367188 12.222656 -17.898438 12.921875 -18.328125 C 13.628906 -18.765625 14.300781 -18.984375 14.9375 -18.984375 C 15.601562 -18.984375 16.101562 -18.75 16.4375 -18.28125 C 16.769531 -17.820312 16.9375 -17.207031 16.9375 -16.4375 C 16.9375 -16.03125 16.921875 -15.582031 16.890625 -15.09375 C 16.859375 -14.613281 16.757812 -14.09375 16.59375 -13.53125 L 12.875 0 L 17.1875 0 L 20.640625 -12.625 C 20.847656 -13.289062 21.164062 -14 21.59375 -14.75 C 22.03125 -15.507812 22.546875 -16.195312 23.140625 -16.8125 C 23.742188 -17.425781 24.394531 -17.929688 25.09375 -18.328125 C 25.800781 -18.734375 26.503906 -18.9375 27.203125 -18.9375 C 28.578125 -18.9375 29.265625 -18.019531 29.265625 -16.1875 Z M 29.265625 -16.1875 "/></g></g></g><g fill="#000000" fill-opacity="1"><g transform="translate(484.194135, 202.049801)"><g><path d="M 29.265625 -16.1875 C 29.265625 -15.78125 29.222656 -15.34375 29.140625 -14.875 C 29.054688 -14.414062 28.929688 -13.898438 28.765625 -13.328125 L 26.515625 -5.40625 C 26.335938 -4.84375 26.21875 -4.359375 26.15625 -3.953125 C 26.09375 -3.554688 26.0625 -3.125 26.0625 -2.65625 C 26.0625 -2.019531 26.164062 -1.492188 26.375 -1.078125 C 26.59375 -0.660156 26.878906 -0.328125 27.234375 -0.078125 C 27.585938 0.171875 27.992188 0.34375 28.453125 0.4375 C 28.921875 0.539062 29.425781 0.59375 29.96875 0.59375 C 30.863281 0.59375 31.660156 0.382812 32.359375 -0.03125 C 33.066406 -0.445312 33.695312 -0.988281 34.25 -1.65625 C 34.800781 -2.320312 35.316406 -3.0625 35.796875 -3.875 C 36.285156 -4.695312 36.765625 -5.523438 37.234375 -6.359375 C 37.296875 -6.492188 37.328125 -6.597656 37.328125 -6.671875 C 37.328125 -6.929688 37.210938 -7.0625 36.984375 -7.0625 C 36.847656 -7.0625 36.726562 -6.976562 36.625 -6.8125 C 35.625 -5.039062 34.671875 -3.585938 33.765625 -2.453125 C 32.867188 -1.316406 32.035156 -0.75 31.265625 -0.75 C 30.566406 -0.75 30.21875 -1.203125 30.21875 -2.109375 C 30.21875 -2.335938 30.234375 -2.59375 30.265625 -2.875 C 30.296875 -3.164062 30.378906 -3.546875 30.515625 -4.015625 L 33.125 -13.484375 C 33.320312 -14.117188 33.421875 -14.800781 33.421875 -15.53125 C 33.421875 -16.132812 33.335938 -16.71875 33.171875 -17.28125 C 33.003906 -17.851562 32.742188 -18.347656 32.390625 -18.765625 C 32.046875 -19.179688 31.578125 -19.519531 30.984375 -19.78125 C 30.398438 -20.050781 29.691406 -20.1875 28.859375 -20.1875 C 27.921875 -20.1875 27.078125 -20.070312 26.328125 -19.84375 C 25.578125 -19.613281 24.898438 -19.3125 24.296875 -18.9375 C 23.703125 -18.570312 23.160156 -18.15625 22.671875 -17.6875 C 22.191406 -17.21875 21.765625 -16.75 21.390625 -16.28125 C 21.390625 -17.65625 21.003906 -18.648438 20.234375 -19.265625 C 19.472656 -19.878906 18.359375 -20.1875 16.890625 -20.1875 C 15.890625 -20.1875 14.992188 -20.070312 14.203125 -19.84375 C 13.421875 -19.613281 12.726562 -19.3125 12.125 -18.9375 C 11.519531 -18.570312 10.984375 -18.144531 10.515625 -17.65625 C 10.054688 -17.175781 9.640625 -16.6875 9.265625 -16.1875 L 10.21875 -19.640625 L 2.703125 -19.640625 L 2.453125 -18.84375 L 5.71875 -18.84375 L 0.5 0 L 4.765625 0 L 8.265625 -12.78125 C 8.460938 -13.34375 8.800781 -13.984375 9.28125 -14.703125 C 9.769531 -15.421875 10.320312 -16.097656 10.9375 -16.734375 C 11.5625 -17.367188 12.222656 -17.898438 12.921875 -18.328125 C 13.628906 -18.765625 14.300781 -18.984375 14.9375 -18.984375 C 15.601562 -18.984375 16.101562 -18.75 16.4375 -18.28125 C 16.769531 -17.820312 16.9375 -17.207031 16.9375 -16.4375 C 16.9375 -16.03125 16.921875 -15.582031 16.890625 -15.09375 C 16.859375 -14.613281 16.757812 -14.09375 16.59375 -13.53125 L 12.875 0 L 17.1875 0 L 20.640625 -12.625 C 20.847656 -13.289062 21.164062 -14 21.59375 -14.75 C 22.03125 -15.507812 22.546875 -16.195312 23.140625 -16.8125 C 23.742188 -17.425781 24.394531 -17.929688 25.09375 -18.328125 C 25.800781 -18.734375 26.503906 -18.9375 27.203125 -18.9375 C 28.578125 -18.9375 29.265625 -18.019531 29.265625 -16.1875 Z M 29.265625 -16.1875 "/></g></g></g><g fill="#000000" fill-opacity="1"><g transform="translate(521.975439, 202.049801)"><g><path d="M 13.734375 -29.109375 C 13.734375 -29.742188 13.53125 -30.300781 13.125 -30.78125 C 12.726562 -31.269531 12.113281 -31.515625 11.28125 -31.515625 C 10.34375 -31.515625 9.640625 -31.222656 9.171875 -30.640625 C 8.703125 -30.054688 8.46875 -29.429688 8.46875 -28.765625 C 8.46875 -28.128906 8.664062 -27.566406 9.0625 -27.078125 C 9.46875 -26.597656 10.085938 -26.359375 10.921875 -26.359375 C 11.859375 -26.359375 12.5625 -26.648438 13.03125 -27.234375 C 13.5 -27.816406 13.734375 -28.441406 13.734375 -29.109375 Z M 2.75 -18.84375 L 6.515625 -18.84375 L 2.859375 -5.609375 C 2.660156 -4.878906 2.519531 -4.238281 2.4375 -3.6875 C 2.351562 -3.132812 2.3125 -2.640625 2.3125 -2.203125 C 2.3125 -1.597656 2.394531 -1.113281 2.5625 -0.75 C 2.726562 -0.382812 2.9375 -0.113281 3.1875 0.0625 C 3.4375 0.25 3.726562 0.375 4.0625 0.4375 C 4.394531 0.507812 4.726562 0.546875 5.0625 0.546875 C 5.863281 0.546875 6.570312 0.378906 7.1875 0.046875 C 7.8125 -0.285156 8.394531 -0.75 8.9375 -1.34375 C 9.488281 -1.945312 10.023438 -2.675781 10.546875 -3.53125 C 11.066406 -4.382812 11.609375 -5.328125 12.171875 -6.359375 C 12.242188 -6.566406 12.28125 -6.671875 12.28125 -6.671875 C 12.28125 -6.867188 12.195312 -6.96875 12.03125 -6.96875 C 11.863281 -6.96875 11.726562 -6.882812 11.625 -6.71875 C 9.6875 -3.375 8.234375 -1.703125 7.265625 -1.703125 C 6.796875 -1.703125 6.5625 -2.050781 6.5625 -2.75 C 6.5625 -3.21875 6.660156 -3.804688 6.859375 -4.515625 L 11.078125 -19.640625 L 2.953125 -19.640625 Z M 2.75 -18.84375 "/></g></g></g><g fill="#000000" fill-opacity="1"><g transform="translate(535.955524, 202.049801)"><g><path d="M 24.953125 -7.171875 C 24.785156 -7.171875 24.632812 -7.050781 24.5 -6.8125 C 23.46875 -4.8125 22.539062 -3.347656 21.71875 -2.421875 C 20.90625 -1.503906 20.25 -1.046875 19.75 -1.046875 C 19.207031 -1.046875 18.9375 -1.46875 18.9375 -2.3125 C 18.9375 -2.570312 18.96875 -2.898438 19.03125 -3.296875 C 19.101562 -3.703125 19.257812 -4.320312 19.5 -5.15625 L 21.453125 -12.171875 C 21.742188 -13.304688 21.929688 -14.132812 22.015625 -14.65625 C 22.097656 -15.175781 22.140625 -15.617188 22.140625 -15.984375 C 22.140625 -17.523438 21.707031 -18.609375 20.84375 -19.234375 C 19.976562 -19.867188 18.828125 -20.1875 17.390625 -20.1875 C 16.316406 -20.1875 15.394531 -20.050781 14.625 -19.78125 C 13.863281 -19.519531 13.195312 -19.195312 12.625 -18.8125 C 12.0625 -18.425781 11.59375 -18.007812 11.21875 -17.5625 C 10.851562 -17.113281 10.535156 -16.703125 10.265625 -16.328125 L 11.171875 -19.640625 L 3.609375 -19.640625 L 3.453125 -18.84375 L 6.671875 -18.84375 L 1.5 0 L 5.765625 0 L 9.171875 -12.28125 C 9.398438 -13.082031 9.765625 -13.890625 10.265625 -14.703125 C 10.773438 -15.523438 11.34375 -16.257812 11.96875 -16.90625 C 12.601562 -17.5625 13.253906 -18.097656 13.921875 -18.515625 C 14.597656 -18.929688 15.21875 -19.140625 15.78125 -19.140625 C 16.351562 -19.140625 16.851562 -18.921875 17.28125 -18.484375 C 17.71875 -18.054688 17.9375 -17.40625 17.9375 -16.53125 C 17.9375 -16.0625 17.867188 -15.519531 17.734375 -14.90625 C 17.597656 -14.289062 17.398438 -13.460938 17.140625 -12.421875 L 15.53125 -6.5625 C 15.269531 -5.53125 15.09375 -4.769531 15 -4.28125 C 14.914062 -3.800781 14.875 -3.375 14.875 -3 C 14.875 -1.769531 15.179688 -0.863281 15.796875 -0.28125 C 16.421875 0.300781 17.269531 0.59375 18.34375 0.59375 C 19.175781 0.59375 19.898438 0.425781 20.515625 0.09375 C 21.140625 -0.238281 21.707031 -0.710938 22.21875 -1.328125 C 22.738281 -1.941406 23.238281 -2.675781 23.71875 -3.53125 C 24.207031 -4.382812 24.71875 -5.328125 25.25 -6.359375 C 25.320312 -6.566406 25.359375 -6.6875 25.359375 -6.71875 C 25.359375 -7.019531 25.222656 -7.171875 24.953125 -7.171875 Z M 24.953125 -7.171875 "/></g></g></g><g fill="#000000" fill-opacity="1"><g transform="translate(562.212027, 202.049801)"><g><path d="M 8.625 -9.875 C 8.625 -10.375 8.738281 -11.113281 8.96875 -12.09375 C 9.207031 -13.082031 9.492188 -14.03125 9.828125 -14.9375 C 10.160156 -15.863281 10.484375 -16.617188 10.796875 -17.203125 C 11.117188 -17.796875 11.453125 -18.257812 11.796875 -18.59375 C 12.148438 -18.925781 12.535156 -19.140625 12.953125 -19.234375 C 13.367188 -19.335938 13.863281 -19.390625 14.4375 -19.390625 C 15.332031 -19.390625 16.015625 -19.164062 16.484375 -18.71875 C 16.953125 -18.269531 17.1875 -17.773438 17.1875 -17.234375 C 17.1875 -16.671875 17.066406 -15.945312 16.828125 -15.0625 C 16.597656 -14.175781 16.300781 -13.144531 15.9375 -11.96875 C 15.46875 -10.375 14.878906 -9.234375 14.171875 -8.546875 C 13.472656 -7.859375 12.523438 -7.515625 11.328125 -7.515625 C 10.421875 -7.515625 9.742188 -7.75 9.296875 -8.21875 C 8.847656 -8.6875 8.625 -9.238281 8.625 -9.875 Z M 8.3125 -7.0625 C 8.644531 -7 9.035156 -6.925781 9.484375 -6.84375 C 9.941406 -6.757812 10.519531 -6.71875 11.21875 -6.71875 C 12.988281 -6.71875 14.492188 -6.96875 15.734375 -7.46875 C 16.972656 -7.96875 17.984375 -8.597656 18.765625 -9.359375 C 19.546875 -10.128906 20.117188 -10.972656 20.484375 -11.890625 C 20.859375 -12.816406 21.046875 -13.695312 21.046875 -14.53125 C 21.046875 -15.46875 20.96875 -16.160156 20.8125 -16.609375 C 20.664062 -17.054688 20.476562 -17.429688 20.25 -17.734375 C 20.375 -18.273438 20.546875 -18.835938 20.765625 -19.421875 C 20.984375 -20.003906 21.175781 -20.296875 21.34375 -20.296875 C 21.414062 -20.296875 21.453125 -20.257812 21.453125 -20.1875 C 21.515625 -19.894531 21.660156 -19.65625 21.890625 -19.46875 C 22.128906 -19.28125 22.429688 -19.1875 22.796875 -19.1875 C 23.265625 -19.1875 23.613281 -19.328125 23.84375 -19.609375 C 24.082031 -19.898438 24.203125 -20.28125 24.203125 -20.75 C 24.203125 -21.75 23.6875 -22.25 22.65625 -22.25 C 22.28125 -22.25 21.929688 -22.097656 21.609375 -21.796875 C 21.296875 -21.492188 21.015625 -21.125 20.765625 -20.6875 C 20.515625 -20.257812 20.304688 -19.816406 20.140625 -19.359375 C 19.972656 -18.910156 19.859375 -18.519531 19.796875 -18.1875 C 19.390625 -18.59375 18.734375 -19.023438 17.828125 -19.484375 C 16.929688 -19.953125 15.734375 -20.1875 14.234375 -20.1875 C 12.722656 -20.1875 11.390625 -19.953125 10.234375 -19.484375 C 9.085938 -19.023438 8.113281 -18.414062 7.3125 -17.65625 C 6.507812 -16.90625 5.898438 -16.046875 5.484375 -15.078125 C 5.066406 -14.109375 4.859375 -13.125 4.859375 -12.125 C 4.859375 -11.457031 5.023438 -10.679688 5.359375 -9.796875 C 5.691406 -8.910156 6.34375 -8.132812 7.3125 -7.46875 C 5.644531 -7.0625 4.285156 -6.34375 3.234375 -5.3125 C 2.179688 -4.28125 1.65625 -3.046875 1.65625 -1.609375 C 1.65625 -0.804688 1.878906 -0.0820312 2.328125 0.5625 C 2.773438 1.21875 3.585938 1.734375 4.765625 2.109375 C 3.492188 2.609375 2.476562 3.132812 1.71875 3.6875 C 0.96875 4.238281 0.394531 4.804688 0 5.390625 C -0.394531 5.972656 -0.660156 6.539062 -0.796875 7.09375 C -0.929688 7.644531 -1 8.132812 -1 8.5625 C -1 9.5 -0.773438 10.285156 -0.328125 10.921875 C 0.117188 11.554688 0.71875 12.054688 1.46875 12.421875 C 2.226562 12.796875 3.113281 13.066406 4.125 13.234375 C 5.144531 13.398438 6.242188 13.484375 7.421875 13.484375 C 9.660156 13.484375 11.53125 13.222656 13.03125 12.703125 C 14.53125 12.179688 15.738281 11.492188 16.65625 10.640625 C 17.582031 9.796875 18.234375 8.820312 18.609375 7.71875 C 18.992188 6.613281 19.1875 5.460938 19.1875 4.265625 C 19.1875 3.253906 18.992188 2.316406 18.609375 1.453125 C 18.234375 0.585938 17.625 -0.078125 16.78125 -0.546875 C 16.1875 -0.878906 15.410156 -1.113281 14.453125 -1.25 C 13.503906 -1.382812 12.523438 -1.476562 11.515625 -1.53125 C 10.515625 -1.582031 9.546875 -1.628906 8.609375 -1.671875 C 7.679688 -1.722656 6.914062 -1.832031 6.3125 -2 C 5.582031 -2.207031 5.046875 -2.453125 4.703125 -2.734375 C 4.367188 -3.015625 4.203125 -3.441406 4.203125 -4.015625 C 4.203125 -4.710938 4.617188 -5.335938 5.453125 -5.890625 C 6.296875 -6.441406 7.25 -6.832031 8.3125 -7.0625 Z M 17.140625 6.921875 C 17.140625 7.785156 16.910156 8.566406 16.453125 9.265625 C 16.003906 9.972656 15.382812 10.566406 14.59375 11.046875 C 13.8125 11.535156 12.878906 11.910156 11.796875 12.171875 C 10.710938 12.441406 9.535156 12.578125 8.265625 12.578125 C 3.285156 12.578125 0.796875 11.003906 0.796875 7.859375 C 0.796875 6.691406 1.179688 5.65625 1.953125 4.75 C 2.722656 3.851562 4.0625 3.019531 5.96875 2.25 C 6.601562 2.320312 7.335938 2.378906 8.171875 2.421875 C 9.003906 2.472656 9.84375 2.550781 10.6875 2.65625 C 11.539062 2.757812 12.359375 2.882812 13.140625 3.03125 C 13.929688 3.175781 14.597656 3.382812 15.140625 3.65625 C 15.804688 4.019531 16.304688 4.484375 16.640625 5.046875 C 16.972656 5.617188 17.140625 6.242188 17.140625 6.921875 Z M 17.140625 6.921875 "/></g></g></g><path stroke-linecap="round" transform="matrix(0.374904, -0.649353, 0.649519, 0.375, 158.743945, 186.149911)" fill="none" stroke-linejoin="miter" d="M 5.500823 5.500503 L 55.525965 5.499399 " stroke="#000000" stroke-width="11" stroke-opacity="1" stroke-miterlimit="4"/><path stroke-linecap="round" transform="matrix(0.750443, 0, 0, 0.75, 180.131262, 147.838318)" fill="none" stroke-linejoin="miter" d="M 5.498821 5.502035 L 550.172062 5.502035 " stroke="#000000" stroke-width="11" stroke-opacity="1" stroke-miterlimit="4"/></svg>